<svg xmlns="http://www.w3.org/2000/svg" height="20" width="20"><path d="m10 12.25 1.083-2.417L13.5 8.75l-2.417-1.083L10 5.25 8.917 7.667 6.5 8.75l2.417 1.083ZM3.5 14.5q-.625 0-1.062-.438Q2 13.625 2 13V4.5q0-.625.438-1.062Q2.875 3 3.5 3h13q.625 0 1.062.438Q18 3.875 18 4.5V13q0 .625-.438 1.062-.437.438-1.062.438Zm0-1.5h13V4.5h-13V13Zm0 0V4.5 13Zm-1.75 4q-.312 0-.531-.219Q1 16.562 1 16.25q0-.312.219-.531.219-.219.531-.219h16.5q.312 0 .531.219.219.219.219.531 0 .312-.219.531-.219.219-.531.219Z"/></svg>